<?xml version="1.0" encoding="UTF-8" standalone="no"?>
<!-- Created with Inkscape (http://www.inkscape.org/) -->

<svg
   width="400"
   height="100"
   viewBox="0 0 105.83333 26.458331"
   version="1.1"
   id="svg827"
   inkscape:version="1.1.2 (0a00cf5339, 2022-02-04)"
   sodipodi:docname="dcalenzani.svg"
   xmlns:inkscape="http://www.inkscape.org/namespaces/inkscape"
   xmlns:sodipodi="http://sodipodi.sourceforge.net/DTD/sodipodi-0.dtd"
   xmlns="http://www.w3.org/2000/svg"
   xmlns:svg="http://www.w3.org/2000/svg">
  <sodipodi:namedview
     id="namedview829"
     pagecolor="#505050"
     bordercolor="#ffffff"
     borderopacity="1"
     inkscape:pageshadow="0"
     inkscape:pageopacity="0"
     inkscape:pagecheckerboard="1"
     inkscape:document-units="px"
     showgrid="false"
     inkscape:snap-global="true"
     inkscape:zoom="4.3792607"
     inkscape:cx="51.036012"
     inkscape:cy="75.926058"
     inkscape:window-width="1920"
     inkscape:window-height="1054"
     inkscape:window-x="0"
     inkscape:window-y="26"
     inkscape:window-maximized="1"
     inkscape:current-layer="layer1"
     units="px"
     height="61px" />
  <defs
     id="defs824">
    <rect
       x="289.35907"
       y="380.40564"
       width="459.56107"
       height="239.26228"
       id="rect3763" />
  </defs>
  <g
     inkscape:label="Layer 1"
     inkscape:groupmode="layer"
     id="layer1">
    <text
       xml:space="preserve"
       transform="scale(0.26458333)"
       id="text3761"
       style="font-style:normal;font-weight:normal;font-size:40px;line-height:1.25;font-family:sans-serif;white-space:pre;shape-inside:url(#rect3763);fill:#000000;fill-opacity:1;stroke:none" />
    <text
       xml:space="preserve"
       style="font-style:normal;font-variant:normal;font-weight:normal;font-stretch:normal;font-size:10.5833px;line-height:1.25;font-family:'Droid Sans Fallback';-inkscape-font-specification:'Droid Sans Fallback';fill:#000000;fill-opacity:1;stroke:none;stroke-width:0.264583"
       x="76.542778"
       y="111.87843"
       id="text10523"><tspan
         sodipodi:role="line"
         id="tspan10521"
         style="font-style:normal;font-variant:normal;font-weight:normal;font-stretch:normal;font-family:'Droid Sans Fallback';-inkscape-font-specification:'Droid Sans Fallback';stroke-width:0.264583"
         x="76.542778"
         y="111.87843" /></text>
    <text
       xml:space="preserve"
       style="font-style:normal;font-weight:normal;font-size:12.8076px;line-height:1.25;font-family:sans-serif;fill:#000000;fill-opacity:1;stroke:none;stroke-width:0.320189"
       x="30.588217"
       y="10.479878"
       id="text14311"
       transform="scale(1.0523018,0.95029772)"><tspan
         sodipodi:role="line"
         id="tspan14309"
         style="font-style:oblique;font-variant:normal;font-weight:bold;font-stretch:normal;font-family:'Bitstream Vera Sans Mono';-inkscape-font-specification:'Bitstream Vera Sans Mono Bold Oblique';stroke-width:0.320189"
         x="30.588217"
         y="10.479878">DANIEL</tspan><tspan
         sodipodi:role="line"
         style="font-style:oblique;font-variant:normal;font-weight:bold;font-stretch:normal;font-family:'Bitstream Vera Sans Mono';-inkscape-font-specification:'Bitstream Vera Sans Mono Bold Oblique';stroke-width:0.320189"
         x="30.588217"
         y="26.489378"
         id="tspan15739">CALENZANI</tspan></text>
    <g
       style="fill:#000000"
       id="g899"
       transform="matrix(1.0395059,0,0,1.0395059,0.61488738,0.59955569)">
      <path
         d="m 12.293,0.004 c 6.625,0.162 11.865,5.664 11.703,12.29 -0.162,6.625 -5.664,11.865 -12.29,11.703 C 5.081,23.835 -0.159,18.333 0.003,11.707 L 0.004,11.682 C 0.18,5.066 5.678,-0.158 12.293,0.004 Z m 0,1.238 C 6.352,1.078 1.403,5.762 1.239,11.703 c -0.164,5.941 4.52,10.89 10.461,11.054 5.941,0.164 10.89,-4.52 11.054,-10.461 l 10e-4,-0.025 C 22.905,6.339 18.225,1.405 12.293,1.242 Z m 5.842,8.302 h 2.4 c 0.976,0 0.682,-0.873 0.682,-0.873 A 9.587,9.587 0 0 0 19.106,5.24 L 19.101,5.251 A 10.052,10.052 0 0 0 15.746,2.922 0.612,0.612 0 0 0 14.852,3.544 c -0.044,0.802 -0.142,2.395 -0.142,2.395 0,0 0.016,0.769 -0.627,0.769 C 13.27,6.719 12.594,6.664 12.594,6.664 A 2.314,2.314 0 0 1 11.339,6.119 L 8.868,3.511 A 1.09,1.09 0 0 0 7.461,3.315 9.758,9.758 0 0 0 2.748,8.699 C 2.492,9.413 3.081,9.505 3.479,9.505 h 6 a 2.086,2.086 0 0 1 1.68,0.627 c 0.785,0.824 1.331,1.369 1.331,1.369 0,0 0.48,0.54 1.26,1.358 0.431,0.459 0.632,1.089 0.545,1.713 0,0 -0.295,5.744 -0.295,6 -0.027,0.398 0.038,0.993 0.769,0.775 a 9.756,9.756 0 0 0 5.618,-4.424 1.091,1.091 0 0 0 -0.12,-1.418 L 17.796,12.898 A 2.303,2.303 0 0 1 17.3,11.616 c 0,0 -0.022,-0.682 0.033,-1.489 0.044,-0.643 0.802,-0.583 0.802,-0.583 z m -2.362,1.374 c -0.475,0.469 -1.484,0.229 -2.22,-0.545 -0.736,-0.775 -0.924,-1.801 -0.45,-2.254 0.475,-0.453 1.502,-0.239 2.239,0.536 0.737,0.774 0.906,1.794 0.431,2.263 z"
         id="path890" />
    </g>
  </g>
</svg>
